# xmcd CD database file
#
# Track frame offsets:
#	150
#	17242
#	34803
#	50429
#	65913
#	82267
#	100525
#	119480
#	139699
#	157291
#	173519
#	189052
#	202047
#
# Disc length: 2919 seconds
#
# Revision: 6
# Processed by: cddbd v1.4PL0 Copyright (c) Steve Scherf et al.
# Submitted via: CDex 1.40Beta6
#
DISCID=b60b650d
DTITLE=Big Bibls Brothers Band - B Klasa
DYEAR=2001
DGENRE=Blues
TTITLE0=Stare Igre
TTITLE1=Vse Poznamo
TTITLE2=Mala Meri
TTITLE3=Problem
TTITLE4=Balla Johnny
TTITLE5=Hey Hey
TTITLE6=Bumerang
TTITLE7=Nocna Mora
TTITLE8=Dej Mama
TTITLE9=Poklici Me Se Kdaj
TTITLE10=Njegov Dan
TTITLE11=Brez Meja
TTITLE12=B Klasa
EXTD=
EXTT0=
EXTT1=
EXTT2=
EXTT3=
EXTT4=
EXTT5=
EXTT6=
EXTT7=
EXTT8=
EXTT9=
EXTT10=
EXTT11=
EXTT12=
PLAYORDER=
